<?xml version="1.0" encoding="UTF-8" standalone="no"?>
<svg
   xmlns:dc="http://purl.org/dc/elements/1.1/"
   xmlns:cc="http://creativecommons.org/ns#"
   xmlns:rdf="http://www.w3.org/1999/02/22-rdf-syntax-ns#"
   xmlns:svg="http://www.w3.org/2000/svg"
   xmlns="http://www.w3.org/2000/svg"
   xmlns:sodipodi="http://sodipodi.sourceforge.net/DTD/sodipodi-0.dtd"
   xmlns:inkscape="http://www.inkscape.org/namespaces/inkscape"
   width="43.170826mm"
   height="43.170818mm"
   viewBox="0 0 43.170826 43.170818"
   version="1.1"
   id="svg114"
   inkscape:version="1.0.2-2 (e86c870879, 2021-01-15)"
   sodipodi:docname="medium.svg">
  <defs
     id="defs108" />
  <sodipodi:namedview
     id="base"
     pagecolor="#ffffff"
     bordercolor="#666666"
     borderopacity="1.0"
     inkscape:pageopacity="0.0"
     inkscape:pageshadow="2"
     inkscape:zoom="0.35"
     inkscape:cx="81.582653"
     inkscape:cy="81.582639"
     inkscape:document-units="mm"
     inkscape:current-layer="layer1"
     inkscape:document-rotation="0"
     showgrid="false"
     inkscape:window-width="1624"
     inkscape:window-height="1024"
     inkscape:window-x="583"
     inkscape:window-y="284"
     inkscape:window-maximized="0" />
  <metadata
     id="metadata111">
    <rdf:RDF>
      <cc:Work
         rdf:about="">
        <dc:format>image/svg+xml</dc:format>
        <dc:type
           rdf:resource="http://purl.org/dc/dcmitype/StillImage" />
        <dc:title></dc:title>
      </cc:Work>
    </rdf:RDF>
  </metadata>
  <g
     inkscape:label="Layer 1"
     inkscape:groupmode="layer"
     id="layer1"
     transform="translate(-84.247923,-126.58126)">
    <path
       d="m 127.41875,148.16667 c 0,11.92107 -9.66435,21.58541 -21.58541,21.58541 -11.92107,0 -21.585417,-9.66434 -21.585417,-21.58541 0,-11.92107 9.664347,-21.58541 21.585417,-21.58541 11.92106,0 21.58541,9.66434 21.58541,21.58541"
       style="fill:#00f892;fill-opacity:1;fill-rule:nonzero;stroke:none;stroke-width:0.352778"
       id="path42" />
    <path
       d="m 98.936433,157.17389 c -4.93395,-0.005 -8.998303,-3.97228 -9.003241,-8.99901 -0.0042,-5.03449 4.064705,-9.02229 9.01841,-9.01523 4.960758,0.007 9.008178,4.00755 8.995128,9.0304 -0.0134,5.01897 -4.07423,8.98243 -9.010297,8.98384"
       style="fill:#464383;fill-opacity:1;fill-rule:nonzero;stroke:none;stroke-width:0.352778"
       id="path46" />
    <path
       d="m 117.87548,148.28107 c -0.004,0.37641 -0.024,0.86572 -0.0695,1.35361 -0.0448,0.47695 -0.11042,0.95109 -0.20179,1.42099 -0.20108,1.03505 -0.50447,2.03658 -0.98142,2.98062 -0.28822,0.57114 -0.63324,1.10419 -1.0728,1.57233 -0.30163,0.32173 -0.63959,0.5976 -1.03082,0.80539 -0.39088,0.20778 -0.80786,0.32385 -1.25095,0.32526 -0.41098,0.001 -0.80292,-0.0942 -1.17298,-0.27552 -0.43321,-0.21202 -0.80328,-0.50765 -1.13207,-0.8576 -0.43744,-0.46602 -0.77964,-0.99766 -1.06786,-1.56563 -0.34007,-0.66922 -0.59055,-1.37266 -0.78175,-2.09797 -0.14358,-0.54469 -0.25153,-1.09643 -0.32844,-1.65488 -0.11359,-0.82621 -0.16333,-1.65664 -0.13864,-2.49061 0.0113,-0.39088 0.0413,-0.78211 0.073,-1.17228 0.049,-0.59725 0.14887,-1.1871 0.28045,-1.7713 0.18098,-0.8061 0.4318,-1.58926 0.78564,-2.3375 0.28681,-0.60537 0.63006,-1.1744 1.07562,-1.67746 0.3496,-0.39441 0.74612,-0.73061 1.22308,-0.96344 0.4445,-0.21696 0.91264,-0.31926 1.40723,-0.27199 0.36195,0.0346 0.70203,0.14429 1.02306,0.31362 0.43638,0.23036 0.80468,0.54539 1.13135,0.91193 0.381,0.42686 0.68686,0.90487 0.94792,1.41217 0.42016,0.81492 0.70767,1.67675 0.91193,2.56822 0.10689,0.46673 0.18732,0.93804 0.248,1.41323 0.0825,0.64594 0.11748,1.29469 0.12171,2.05881"
       style="fill:#464383;fill-opacity:1;fill-rule:nonzero;stroke:none;stroke-width:0.352778"
       id="path50" />
    <path
       d="m 118.39294,147.89072 c 0.0102,-0.33091 0.0226,-0.94051 0.0504,-1.5494 0.0258,-0.57044 0.0744,-1.13982 0.13864,-1.70744 0.0741,-0.65688 0.17074,-1.31022 0.31291,-1.95616 0.10231,-0.46496 0.22543,-0.92427 0.40922,-1.36489 0.0674,-0.16087 0.14076,-0.31962 0.24272,-0.46144 0.066,-0.0921 0.13793,-0.18344 0.22119,-0.25929 0.1912,-0.17427 0.40746,-0.16969 0.60184,-3.5e-4 0.10583,0.0924 0.18767,0.2039 0.25999,0.32279 0.14676,0.24095 0.24871,0.5013 0.33902,0.76694 0.15699,0.46178 0.27023,0.93486 0.35525,1.41428 0.0727,0.40958 0.13723,0.82057 0.19191,1.23296 0.0462,0.35031 0.0755,0.70274 0.1083,1.05481 0.0508,0.54469 0.0847,1.09043 0.0945,1.63724 0.0109,0.62301 0.018,1.24601 0.012,1.86902 -0.006,0.61771 -0.0342,1.23472 -0.09,1.84996 -0.0445,0.49001 -0.091,0.98037 -0.15275,1.46862 -0.0952,0.75847 -0.23283,1.50989 -0.45508,2.24331 -0.0801,0.26564 -0.17533,0.52599 -0.29775,0.77541 -0.0713,0.14464 -0.15028,0.28504 -0.25964,0.40393 -0.06,0.0653 -0.12806,0.12664 -0.20214,0.17497 -0.13194,0.0868 -0.27164,0.0833 -0.40887,0.005 -0.0836,-0.048 -0.15275,-0.11324 -0.21449,-0.18662 -0.127,-0.15134 -0.21978,-0.3235 -0.30057,-0.50235 -0.15839,-0.35067 -0.27022,-0.71685 -0.36477,-1.08868 -0.14146,-0.55421 -0.24553,-1.11513 -0.31926,-1.68169 -0.0526,-0.40181 -0.0991,-0.80433 -0.14006,-1.2072 -0.0296,-0.28963 -0.0487,-0.57997 -0.0667,-0.87066 -0.0441,-0.70062 -0.0621,-1.40229 -0.066,-2.38266"
       style="fill:#464383;fill-opacity:1;fill-rule:nonzero;stroke:none;stroke-width:0.352778"
       id="path54" />
  </g>
</svg>
