<?xml version="1.0" encoding="UTF-8" standalone="no"?>
<svg
   xmlns:dc="http://purl.org/dc/elements/1.1/"
   xmlns:cc="http://creativecommons.org/ns#"
   xmlns:rdf="http://www.w3.org/1999/02/22-rdf-syntax-ns#"
   xmlns:svg="http://www.w3.org/2000/svg"
   xmlns="http://www.w3.org/2000/svg"
   xmlns:sodipodi="http://sodipodi.sourceforge.net/DTD/sodipodi-0.dtd"
   xmlns:inkscape="http://www.inkscape.org/namespaces/inkscape"
   enable-background="new -91 49.217 56.693 56.693"
   id="Layer_1"
   version="1.1"
   viewBox="-91 49.217 49.248901 49.248"
   xml:space="preserve"
   sodipodi:docname="medium.svg"
   width="49.248901"
   height="49.248001"
   inkscape:version="1.0.2-2 (e86c870879, 2021-01-15)"><metadata
     id="metadata9"><rdf:RDF><cc:Work
         rdf:about=""><dc:format>image/svg+xml</dc:format><dc:type
           rdf:resource="http://purl.org/dc/dcmitype/StillImage" /></cc:Work></rdf:RDF></metadata><defs
     id="defs7" /><sodipodi:namedview
     pagecolor="#ffffff"
     bordercolor="#666666"
     borderopacity="1"
     objecttolerance="10"
     gridtolerance="10"
     guidetolerance="10"
     inkscape:pageopacity="0"
     inkscape:pageshadow="2"
     inkscape:window-width="1920"
     inkscape:window-height="1000"
     id="namedview5"
     showgrid="false"
     inkscape:zoom="14.358033"
     inkscape:cx="24.4709"
     inkscape:cy="23.2272"
     inkscape:window-x="-11"
     inkscape:window-y="-11"
     inkscape:window-maximized="1"
     inkscape:current-layer="Layer_1" /><path
     d="M -66.3751,49.217 C -79.9746,49.217 -91,60.2404 -91,73.84 c 0,13.5997 11.0254,24.625 24.6249,24.625 13.5986,0 24.624,-11.0253 24.624,-24.625 0,-13.5996 -11.0254,-24.623 -24.624,-24.623 z m 13.9685,16.3203 h -1.1218 c -0.4166,0 -1.0054,0.6008 -1.0054,0.9854 v 13.9409 c 0,0.3851 0.5889,0.91 1.0054,0.91 h 1.1218 v 3.3091 h -10.1636 v -3.3091 h 2.1273 V 66.7191 h -0.1042 l -4.9675,17.9635 h -3.846 l -4.9035,-17.9635 h -0.1241 v 14.6544 h 2.1273 v 3.3091 h -8.509 v -3.3091 h 1.0895 c 0.4488,0 1.0377,-0.5249 1.0377,-0.91 V 66.5227 c 0,-0.3846 -0.5889,-0.9854 -1.0377,-0.9854 h -1.0895 v -3.3091 h 10.6401 l 3.4934,12.9999 h 0.0961 l 3.5257,-12.9999 h 10.6082 v 3.3091 z"
     fill="#00fa94"
     id="path2" /></svg>
