<?xml version="1.0" standalone="no"?>
<!DOCTYPE svg PUBLIC "-//W3C//DTD SVG 20010904//EN"
 "http://www.w3.org/TR/2001/REC-SVG-20010904/DTD/svg10.dtd">
<svg version="1.0" xmlns="http://www.w3.org/2000/svg"
 width="287.000000pt" height="287.000000pt" viewBox="0 0 287.000000 287.000000"
 preserveAspectRatio="xMidYMid meet">
<metadata>
Created by potrace 1.14, written by Peter Selinger 2001-2017
</metadata>
<g transform="translate(0.000000,287.000000) scale(0.100000,-0.100000)"
fill="#000000" stroke="none">
<path d="M1265 2140 c-402 -402 -731 -732 -733 -734 -1 -2 -4 -12 -7 -24 -2
-15 50 -73 220 -243 123 -122 233 -224 244 -226 16 -2 144 121 540 520 286
287 531 536 546 552 91 106 140 291 114 431 -10 51 -145 421 -161 442 -6 6
-16 12 -22 12 -6 0 -340 -329 -741 -730z"/>
<path d="M1622 1407 c-371 -371 -552 -559 -552 -573 0 -30 373 -404 404 -404
22 0 65 41 563 545 87 88 175 180 194 205 118 146 137 362 49 555 -5 11 -24
62 -42 113 -18 52 -40 97 -49 102 -12 7 -137 -113 -567 -543z"/>
<path d="M1835 410 c-88 -87 -161 -167 -163 -178 -3 -21 180 -215 214 -226 29
-9 69 23 161 128 24 27 48 67 54 90 13 49 13 118 0 143 -5 10 -19 47 -32 83
-30 87 -47 120 -62 120 -7 0 -84 -72 -172 -160z"/>
</g>
</svg>
