<?xml version="1.0" encoding="UTF-8" standalone="no"?>
<svg
   xmlns:dc="http://purl.org/dc/elements/1.1/"
   xmlns:cc="http://creativecommons.org/ns#"
   xmlns:rdf="http://www.w3.org/1999/02/22-rdf-syntax-ns#"
   xmlns:svg="http://www.w3.org/2000/svg"
   xmlns="http://www.w3.org/2000/svg"
   xmlns:sodipodi="http://sodipodi.sourceforge.net/DTD/sodipodi-0.dtd"
   xmlns:inkscape="http://www.inkscape.org/namespaces/inkscape"
   fill="#00fa94"
   viewBox="0 0 46 46"
   width="138"
   height="138"
   version="1.1"
   id="svg4"
   sodipodi:docname="twitter.svg"
   inkscape:version="1.0.2-2 (e86c870879, 2021-01-15)">
  <metadata
     id="metadata10">
    <rdf:RDF>
      <cc:Work
         rdf:about="">
        <dc:format>image/svg+xml</dc:format>
        <dc:type
           rdf:resource="http://purl.org/dc/dcmitype/StillImage" />
      </cc:Work>
    </rdf:RDF>
  </metadata>
  <defs
     id="defs8" />
  <sodipodi:namedview
     pagecolor="#ffffff"
     bordercolor="#666666"
     borderopacity="1"
     objecttolerance="10"
     gridtolerance="10"
     guidetolerance="10"
     inkscape:pageopacity="0"
     inkscape:pageshadow="2"
     inkscape:window-width="1920"
     inkscape:window-height="1000"
     id="namedview6"
     showgrid="false"
     inkscape:zoom="5.4266667"
     inkscape:cx="69"
     inkscape:cy="54.257985"
     inkscape:window-x="-11"
     inkscape:window-y="-11"
     inkscape:window-maximized="1"
     inkscape:current-layer="svg4" />
  <path
     d="M 23,0 C 10.317,0 0,10.317 0,23 0,35.683 10.317,46 23,46 35.683,46 46,35.683 46,23 46,10.317 35.683,0 23,0 Z M 34.237,18.524 C 34.247,18.76 34.253,19 34.253,19.241 34.253,26.559 28.68,35 18.491,35 15.363,35 12.45,34.083 10,32.511 c 0.433,0.052 0.872,0.077 1.321,0.077 2.596,0 4.985,-0.884 6.879,-2.37 -2.424,-0.044 -4.468,-1.649 -5.175,-3.847 0.339,0.065 0.686,0.1 1.044,0.1 0.505,0 0.995,-0.067 1.458,-0.195 -2.532,-0.511 -4.441,-2.747 -4.441,-5.432 0,-0.024 0,-0.047 0,-0.07 0.747,0.415 1.6,0.665 2.509,0.694 -1.488,-0.995 -2.464,-2.689 -2.464,-4.611 0,-1.015 0.272,-1.966 0.749,-2.786 2.733,3.351 6.815,5.556 11.418,5.788 -0.095,-0.406 -0.145,-0.828 -0.145,-1.262 0,-3.059 2.48,-5.539 5.54,-5.539 1.593,0 3.032,0.672 4.042,1.749 1.261,-0.248 2.448,-0.709 3.518,-1.343 -0.413,1.292 -1.292,2.378 -2.437,3.064 1.122,-0.136 2.188,-0.432 3.183,-0.873 -0.742,1.111 -1.681,2.088 -2.762,2.869 z"
     id="path2" />
</svg>
